<?xml version="1.0" encoding="utf-8"?>
<!-- Generator: Adobe Illustrator 16.0.0, SVG Export Plug-In . SVG Version: 6.00 Build 0)  -->
<!DOCTYPE svg PUBLIC "-//W3C//DTD SVG 1.1//EN" "http://www.w3.org/Graphics/SVG/1.1/DTD/svg11.dtd">
<svg version="1.1" id="Layer_1" xmlns="http://www.w3.org/2000/svg" xmlns:xlink="http://www.w3.org/1999/xlink" x="0px" y="0px"
	 width="128px" height="128px" viewBox="0 0 128 128" enable-background="new 0 0 128 128" xml:space="preserve">
<g>
	<g>
		<path fill="#282D33" d="M73.25,112.109H54.005V81.16H73.25V112.109z M58.005,108.109H69.25V85.16H58.005V108.109z"/>
	</g>
	<g>
		<path fill="#282D33" d="M127.156,112.109h-19.247V38.607h19.247V112.109z M111.909,108.109h11.247V42.607h-11.247V108.109z"/>
	</g>
	<g>
		<path fill="#282D33" d="M100.203,112.109H80.958V87.34h19.245V112.109z M84.958,108.109h11.245V91.34H84.958V108.109z"/>
	</g>
	<g>
		<path fill="#282D33" d="M46.298,112.109H27.052V96.826h19.246V112.109z M31.052,108.109h11.246v-7.283H31.052V108.109z"/>
	</g>
	<g>
		<g>
			<g>
				<polygon fill="#282D33" points="107.622,27.015 107.616,7.889 88.771,7.886 88.771,3.886 111.614,3.89 111.622,27.014 				"/>
			</g>
			<g>
				
					<rect x="61.425" y="-12.628" transform="matrix(0.7116 0.7026 -0.7026 0.7116 55.1202 -29.4433)" fill="#282D33" width="4" height="130.096"/>
			</g>
		</g>
	</g>
	<g>
		<g>
			<rect y="108.566" fill="#282D33" width="10.511" height="4"/>
		</g>
		<g>
			<rect y="97.025" fill="#282D33" width="10.511" height="4"/>
		</g>
		<g>
			<rect y="85.479" fill="#282D33" width="10.511" height="4"/>
		</g>
		<g>
			<rect y="73.941" fill="#282D33" width="10.511" height="4"/>
		</g>
		<g>
			<rect y="62.396" fill="#282D33" width="10.511" height="4"/>
		</g>
		<g>
			<rect y="50.855" fill="#282D33" width="10.511" height="4"/>
		</g>
		<g>
			<rect y="39.313" fill="#282D33" width="10.511" height="4"/>
		</g>
		<g>
			<rect y="27.77" fill="#282D33" width="10.511" height="4"/>
		</g>
		<g>
			<rect y="16.229" fill="#282D33" width="10.511" height="4"/>
		</g>
	</g>
	<g>
		<rect y="120.113" fill="#282D33" width="128" height="4"/>
	</g>
</g>
</svg>
